# xmcd CD database file
#
# Track frame offsets:
#	150
#	33032
#	59215
#	88944
#	122445
#	151618
#	185435
#	213946
#	246565
#	265376
#	289571
#
# Disc length: 4465 seconds
#
# Revision: 0
# Processed by: cddbd v1.5.1PL2 Copyright (c) Steve Scherf et al.
# Submitted via: CDex 1.51
#
DISCID=9a116f0b
DTITLE=New Chocolate Dandies - That's my home
DYEAR=2006
DGENRE=Jazz
TTITLE0=Baby won't you please come home
TTITLE1=It's a sin to tell lie
TTITLE2=A kiss to build a dream on
TTITLE3=Someday
TTITLE4=I've found a new baby
TTITLE5=Over the raimbow
TTITLE6=Sweet Georgia Brown
TTITLE7=All of me
TTITLE8=I've got the feeling I am falling
TTITLE9=That's my home
TTITLE10=Some of these days
EXTD=YEAR: 2006
EXTT0=
EXTT1=
EXTT2=
EXTT3=
EXTT4=
EXTT5=
EXTT6=
EXTT7=
EXTT8=
EXTT9=
EXTT10=
PLAYORDER=
